# xmcd CD database file
#
# Track frame offsets:
#	150
#	9807
#	24102
#	33447
#	56085
#	67185
#	74692
#	84907
#	107092
#	117012
#	130832
#	139862
#	155655
#	165055
#	178275
#	190610
#	199782
#
# Disc length: 2807 seconds
#
# Revision: 0
# Processed by: cddbd v1.5.1PL0 Copyright (c) Steve Scherf et al.
# Submitted via: CDex 1.51
#
DISCID=de0af511
DTITLE=Various Artist - JAZZ EVER! CHRISTMAS
DYEAR=2004
DGENRE=Jazz
TTITLE0=WHITE CHRISTMAS
TTITLE1=THE CHRISTMAS SONG
TTITLE2=LET IT SNOW! LET IT SNOW! LET IT SNOW!
TTITLE3=SANTA CLAUS IS COMING TO TOWN
TTITLE4=WINTER WONDERLAND
TTITLE5=JOY TO THE WORLD
TTITLE6=RUDOLPH THE RED-NOSED REINDEER
TTITLE7=I'LL BE HOME FOR CHRISTMAS
TTITLE8=JINGLE BELLS
TTITLE9=CHRISTMAS TIME IS HERE
TTITLE10=WE WISH YOU A MERRY CHRISTMAS
TTITLE11=ADESTE FIDELES 〜 LITTLE DRUMMER BOY
TTITLE12=DECK THE HALLS
TTITLE13=CHRISTMAS HEART
TTITLE14=CHRISTMAS WALTZ
TTITLE15=HAVE YOURSELF A MERRY LITTLE CHRISTMAS
TTITLE16=SILENT NIGHT
EXTD=YEAR: 2004
EXTT0=
EXTT1=
EXTT2=
EXTT3=
EXTT4=
EXTT5=
EXTT6=
EXTT7=
EXTT8=
EXTT9=
EXTT10=
EXTT11=
EXTT12=
EXTT13=
EXTT14=
EXTT15=
EXTT16=
PLAYORDER=
